<mxfile host="app.diagrams.net" modified="2020-11-10T12:57:38.759Z" agent="5.0 (Windows NT 10.0; Win64; x64) AppleWebKit/537.36 (KHTML, like Gecko) Chrome/86.0.4240.183 Safari/537.36" etag="LDqUdHrmRuzxKxWsTaL8" version="13.9.2" type="github">
  <diagram id="WSAZXvV8l3Ioj5PMuX5o" name="Page-1">
    <mxGraphModel dx="868" dy="482" grid="1" gridSize="10" guides="1" tooltips="1" connect="1" arrows="1" fold="1" page="1" pageScale="1" pageWidth="827" pageHeight="1169" math="0" shadow="0">
      <root>
        <mxCell id="0" />
        <mxCell id="1" parent="0" />
        <mxCell id="4zbMG69WDRTjolxLuxar-5" value="" style="whiteSpace=wrap;html=1;aspect=fixed;" parent="1" vertex="1">
          <mxGeometry x="560" y="115" width="150" height="150" as="geometry" />
        </mxCell>
        <mxCell id="4zbMG69WDRTjolxLuxar-1" value="Actor" style="shape=umlActor;verticalLabelPosition=bottom;verticalAlign=top;html=1;outlineConnect=0;" parent="1" vertex="1">
          <mxGeometry x="100" y="160" width="30" height="60" as="geometry" />
        </mxCell>
        <mxCell id="4zbMG69WDRTjolxLuxar-2" value="results" style="rounded=0;whiteSpace=wrap;html=1;" parent="1" vertex="1">
          <mxGeometry x="230" y="160" width="120" height="60" as="geometry" />
        </mxCell>
        <mxCell id="4zbMG69WDRTjolxLuxar-3" value="index" style="rounded=0;whiteSpace=wrap;html=1;" parent="1" vertex="1">
          <mxGeometry x="230" y="340" width="120" height="60" as="geometry" />
        </mxCell>
        <mxCell id="4zbMG69WDRTjolxLuxar-4" value="NoSQL" style="shape=cylinder3;whiteSpace=wrap;html=1;boundedLbl=1;backgroundOutline=1;size=15;" parent="1" vertex="1">
          <mxGeometry x="605" y="150" width="60" height="80" as="geometry" />
        </mxCell>
        <mxCell id="4zbMG69WDRTjolxLuxar-6" value="db replication" style="text;html=1;strokeColor=none;fillColor=none;align=center;verticalAlign=middle;whiteSpace=wrap;rounded=0;" parent="1" vertex="1">
          <mxGeometry x="610" y="120" width="90" height="20" as="geometry" />
        </mxCell>
        <mxCell id="4zbMG69WDRTjolxLuxar-7" value="" style="endArrow=classic;html=1;entryX=0;entryY=0.5;entryDx=0;entryDy=0;" parent="1" source="4zbMG69WDRTjolxLuxar-1" target="4zbMG69WDRTjolxLuxar-2" edge="1">
          <mxGeometry width="50" height="50" relative="1" as="geometry">
            <mxPoint x="120" y="380" as="sourcePoint" />
            <mxPoint x="170" y="330" as="targetPoint" />
          </mxGeometry>
        </mxCell>
        <mxCell id="4zbMG69WDRTjolxLuxar-13" value="new documents" style="ellipse;whiteSpace=wrap;html=1;aspect=fixed;" parent="1" vertex="1">
          <mxGeometry x="75" y="330" width="80" height="80" as="geometry" />
        </mxCell>
        <mxCell id="rZZbJmTeiNXABCnSzov8-1" value="&lt;h1&gt;Basic Engine Pipeline&lt;/h1&gt;&lt;p&gt;Crawling: Grapping the data&lt;/p&gt;&lt;p&gt;Parsing: Understanding the data&lt;/p&gt;&lt;p&gt;Indexing: build the holding structute&lt;/p&gt;&lt;p&gt;Ranking: Sort the data&lt;/p&gt;&lt;p&gt;Searching: Rea that holding structure&lt;/p&gt;" style="text;html=1;strokeColor=none;fillColor=none;spacing=5;spacingTop=-20;whiteSpace=wrap;overflow=hidden;rounded=0;" vertex="1" parent="1">
          <mxGeometry x="557" y="300" width="270" height="180" as="geometry" />
        </mxCell>
        <mxCell id="rZZbJmTeiNXABCnSzov8-3" value="" style="endArrow=classic;html=1;exitX=1;exitY=0.5;exitDx=0;exitDy=0;entryX=0;entryY=0.5;entryDx=0;entryDy=0;" edge="1" parent="1" source="4zbMG69WDRTjolxLuxar-3" target="4zbMG69WDRTjolxLuxar-5">
          <mxGeometry width="50" height="50" relative="1" as="geometry">
            <mxPoint x="390" y="280" as="sourcePoint" />
            <mxPoint x="440" y="230" as="targetPoint" />
          </mxGeometry>
        </mxCell>
        <mxCell id="rZZbJmTeiNXABCnSzov8-5" value="&lt;p style=&quot;font-size: 12px ; text-align: left ; background-color: rgb(248 , 249 , 250)&quot;&gt;Crawling, Parsing, Indexing&lt;/p&gt;" style="edgeLabel;html=1;align=center;verticalAlign=middle;resizable=0;points=[];" vertex="1" connectable="0" parent="rZZbJmTeiNXABCnSzov8-3">
          <mxGeometry x="-0.5388" y="1" relative="1" as="geometry">
            <mxPoint x="32.06" y="-27.59" as="offset" />
          </mxGeometry>
        </mxCell>
        <mxCell id="rZZbJmTeiNXABCnSzov8-6" value="" style="endArrow=classic;html=1;entryX=1;entryY=0.5;entryDx=0;entryDy=0;exitX=0;exitY=0.5;exitDx=0;exitDy=0;startArrow=classic;startFill=1;" edge="1" parent="1" source="4zbMG69WDRTjolxLuxar-5" target="4zbMG69WDRTjolxLuxar-2">
          <mxGeometry width="50" height="50" relative="1" as="geometry">
            <mxPoint x="390" y="260" as="sourcePoint" />
            <mxPoint x="440" y="210" as="targetPoint" />
          </mxGeometry>
        </mxCell>
        <mxCell id="rZZbJmTeiNXABCnSzov8-7" value="&lt;p style=&quot;font-size: 12px ; text-align: left ; background-color: rgb(248 , 249 , 250)&quot;&gt;Ranking and&amp;nbsp;Searching&lt;/p&gt;" style="edgeLabel;html=1;align=center;verticalAlign=middle;resizable=0;points=[];" vertex="1" connectable="0" parent="rZZbJmTeiNXABCnSzov8-6">
          <mxGeometry x="0.3238" y="5" relative="1" as="geometry">
            <mxPoint x="29" y="-5" as="offset" />
          </mxGeometry>
        </mxCell>
        <mxCell id="rZZbJmTeiNXABCnSzov8-9" value="" style="endArrow=classic;html=1;exitX=1;exitY=0.5;exitDx=0;exitDy=0;" edge="1" parent="1" source="4zbMG69WDRTjolxLuxar-13" target="4zbMG69WDRTjolxLuxar-3">
          <mxGeometry width="50" height="50" relative="1" as="geometry">
            <mxPoint x="390" y="290" as="sourcePoint" />
            <mxPoint x="440" y="240" as="targetPoint" />
          </mxGeometry>
        </mxCell>
      </root>
    </mxGraphModel>
  </diagram>
</mxfile>
